<svg preserveAspectRatio="none" width="100%" height="100%" viewBox="0 0 9935 7236" version="1.1" xmlns="http://www.w3.org/2000/svg" xmlns:xlink="http://www.w3.org/1999/xlink" xml:space="preserve" xmlns:serif="http://www.serif.com/" style="fill-rule:evenodd;clip-rule:evenodd;stroke-linecap:round;stroke-linejoin:round;stroke-miterlimit:1.5;">
    <g transform="matrix(1,0,0,1,0.5,-15139.1)">
        <g transform="matrix(1,0,0,0.961201,0,587.562)">
            <path d="M9933.07,22385L8743.58,22235C8584.4,22214.9 8423.48,22214.9 8264.3,22235C7583.73,22320.8 5644.61,22565.4 4964.05,22651.2C4804.87,22671.3 4643.95,22671.3 4484.77,22651.2C3803.85,22565.3 1863.04,22320.5 1183.45,22234.8C1024.98,22214.8 864.775,22214.7 706.286,22234.5L0,22322.8L0,15354.3L479.663,15474.2C785.457,15550.7 1104.31,15550.7 1410.1,15474.2C1702.14,15401.2 2077.38,15307.4 2369.43,15234.4C2675.22,15158 2994.07,15158 3299.86,15234.4C3591.91,15307.4 3967.15,15401.2 4259.19,15474.2C4564.98,15550.7 4883.84,15550.7 5189.63,15474.2C5481.67,15401.2 5856.91,15307.4 6148.95,15234.4C6454.75,15158 6773.6,15158 7079.39,15234.4C7371.43,15307.4 7746.68,15401.2 8038.72,15474.2C8344.51,15550.7 8663.36,15550.7 8969.16,15474.2L9933.07,15233.3L9933.07,22385Z" style="fill:rgb(166,74,201);fill-opacity:0.33;stroke:black;stroke-width:1.02px;"/>
        </g>
        <g transform="matrix(1,0,0,0.961201,0,587.562)">
            <g transform="matrix(1,0,0,0.447938,-1733.52,12391.5)">
                <path d="M11666.6,21690C11363.5,22238.3 10983.9,22517.5 10596.9,22468.7C9779.33,22365.6 8910.49,22256 8611.91,22218.3C8539.98,22209.3 8467.89,22209.3 8395.97,22218.3C7848.1,22287.4 5380.25,22598.7 4832.38,22667.8C4760.45,22676.9 4688.37,22676.9 4616.44,22667.8L1733.52,22304.2L1733.52,15393.4L2621.56,15171.4C2763.21,15136 2906.09,15136 3047.74,15171.4C3411.39,15262.3 4147.67,15446.4 4511.32,15537.3C4652.97,15572.7 4795.85,15572.7 4937.5,15537.3C5301.15,15446.4 6037.43,15262.3 6401.08,15171.4C6542.73,15136 6685.61,15136 6827.26,15171.4C7190.91,15262.3 7927.2,15446.4 8290.85,15537.3C8432.5,15572.7 8575.38,15572.7 8717.03,15537.3C9099.76,15441.6 9895.28,15242.7 10234.7,15157.9C10340.4,15131.4 10447,15131.4 10552.7,15157.9C10648,15181.7 10779.3,15214.5 10927.4,15251.5C11203.9,15320.7 11456.4,15559.4 11666.6,15920.1L11666.6,21690Z" style="fill:rgb(166,74,201);fill-opacity:0.33;stroke:black;stroke-width:1.3px;"/>
            </g>
        </g>
        <g transform="matrix(1,0,0,0.961201,0,587.562)">
            <g transform="matrix(1,0,0,0.598328,0,6072.53)">
                <path d="M9933.07,22385L8647.99,22222.9C8552.08,22210.8 8455.79,22210.8 8359.88,22222.9C7760.53,22298.5 5467.81,22587.7 4868.46,22663.3C4772.55,22675.4 4676.27,22675.4 4580.36,22663.3C3980.79,22587.6 1686.64,22298.3 1088.29,22222.8C992.809,22210.8 896.953,22210.7 801.467,22222.7L0,22322.8L0,15354.3L661.519,15519.7C849.461,15566.7 1040.3,15566.7 1228.25,15519.7C1585.06,15430.5 2194.47,15278.2 2551.28,15189C2739.22,15142 2930.07,15142 3118.01,15189C3474.83,15278.2 4084.23,15430.5 4441.05,15519.7C4628.99,15566.7 4819.83,15566.7 5007.77,15519.7C5364.59,15430.5 5973.99,15278.2 6330.81,15189C6518.75,15142 6709.59,15142 6897.54,15189C7254.35,15278.2 7863.76,15430.5 8220.57,15519.7C8408.52,15566.7 8599.36,15566.7 8787.3,15519.7L9933.07,15233.3L9933.07,22385Z" style="fill:rgb(166,74,201);fill-opacity:0.33;stroke:black;stroke-width:1.23px;"/>
            </g>
        </g>
        <g transform="matrix(1,0,0,0.961201,0,587.562)">
            <g transform="matrix(1,0,0,0.31956,-944.882,10494.6)">
                <path d="M10878,23828.3C10511.1,23983.6 10132.3,23726 9808.99,23062.1C9500.68,22429 9215.4,21843.1 8990.7,21381.7C8672.7,20728.6 8304.4,20382.1 7928.42,20382.1C7019.9,20382.1 5308.61,20382.1 4843.6,20382.1C4764.21,20382.1 4684.89,20366.6 4606.07,20335.8C4113.98,20143.3 2215.58,19400.7 1363.29,19067.3C1224.05,19012.8 1083.82,19006.6 944.882,19047.9L944.882,15571.5C995.735,15571.5 1046.59,15565.1 1097.33,15552.4C1451.73,15463.8 2327.8,15244.8 2682.2,15156.2C2783.68,15130.9 2885.61,15130.9 2987.09,15156.2C3341.49,15244.8 4217.56,15463.8 4571.96,15552.4C4673.44,15577.8 4775.38,15577.8 4876.86,15552.4C5231.26,15463.8 6107.33,15244.8 6461.73,15156.2C6563.21,15130.9 6665.14,15130.9 6766.62,15156.2C7121.02,15244.8 7997.09,15463.8 8351.49,15552.4C8452.97,15577.8 8554.9,15577.8 8656.39,15552.4C9031.53,15458.7 9991.19,15218.7 10297.9,15142.1C10361.7,15126.1 10425.7,15126.1 10489.5,15142.1L10878,15239.2L10878,23828.3Z" style="fill:rgb(166,74,201);fill-opacity:0.33;stroke:black;stroke-width:1.35px;"/>
            </g>
        </g>
        <g transform="matrix(1,0,0,0.961201,0,587.562)">
            <g transform="matrix(-0.999306,0.0387607,-0.0372568,-1.03964,4886.91,37990.8)">
                <path d="M4166,19427.4L1088.29,19204.1C992.809,19197.2 896.953,19197.2 801.467,19204C535.922,19223.1 -63.6,19266.2 -700.776,19312C-1059.61,19337.8 -1414.9,19265.8 -1730.91,19108.5L-1001.73,19187C-860.079,19202.2 -717.201,19202.2 -575.55,19187C-211.901,19147.8 524.385,19068.6 888.034,19029.4C1029.68,19014.2 1172.56,19014.2 1314.21,19029.4C1677.86,19068.6 2414.15,19147.8 2777.8,19187C2919.45,19202.2 3062.33,19202.2 3203.98,19187L4178.88,19082L4166,19427.4Z" style="fill:rgb(166,74,201);fill-opacity:0.33;stroke:black;stroke-width:1px;"/>
            </g>
        </g>
    </g>
</svg>
