<?xml version="1.0" encoding="UTF-8" standalone="no"?>
<!DOCTYPE svg PUBLIC "-//W3C//DTD SVG 1.1//EN" "http://www.w3.org/Graphics/SVG/1.1/DTD/svg11.dtd">
<svg width="100%" height="100%" viewBox="0 0 9695 7979" version="1.1" xmlns="http://www.w3.org/2000/svg" xmlns:xlink="http://www.w3.org/1999/xlink" xml:space="preserve" xmlns:serif="http://www.serif.com/" style="fill-rule:evenodd;clip-rule:evenodd;stroke-linejoin:round;stroke-miterlimit:2;">
    <g transform="matrix(1,0,0,1,0,-6439.55)">
        <g id="Circles">
            <g id="Circles1" serif:id="Circles">
                <g transform="matrix(0.493987,0,0,0.493987,-2010.23,4149.12)">
                    <circle cx="8189.93" cy="7859.28" r="661.397" style="fill:rgb(255,180,143);fill-opacity:0.73;"/>
                </g>
                <g transform="matrix(0.493987,0,0,0.493987,5076.38,8255.36)">
                    <circle cx="8189.93" cy="7859.28" r="661.397" style="fill:rgb(245,230,204);fill-opacity:0.73;"/>
                </g>
                <g transform="matrix(0.493987,0,0,0.493987,3840.06,5277.72)">
                    <circle cx="8189.93" cy="7859.28" r="661.397" style="fill:rgb(23,233,224);fill-opacity:0.73;"/>
                </g>
                <g transform="matrix(0.493987,0,0,0.493987,-594.704,6143.57)">
                    <circle cx="8189.93" cy="7859.28" r="661.397" style="fill:rgb(166,74,201);fill-opacity:0.73;"/>
                </g>
                <g transform="matrix(0.493987,0,0,0.493987,1477.86,8582.09)">
                    <circle cx="8189.93" cy="7859.28" r="661.397" style="fill:rgb(252,205,4);fill-opacity:0.73;"/>
                </g>
                <g transform="matrix(0.493987,0,0,0.493987,190.015,3111.93)">
                    <circle cx="8189.93" cy="7859.28" r="661.397" style="fill:rgb(255,180,143);fill-opacity:0.73;"/>
                </g>
                <g transform="matrix(0.493987,0,0,0.493987,-676.205,4624.28)">
                    <circle cx="8189.93" cy="7859.28" r="661.397" style="fill:rgb(23,233,224);fill-opacity:0.73;"/>
                </g>
                <g transform="matrix(0.493987,0,0,0.493987,3247.75,7792.56)">
                    <circle cx="8189.93" cy="7859.28" r="661.397" style="fill:rgb(166,74,201);fill-opacity:0.73;"/>
                </g>
                <g transform="matrix(0.493987,0,0,0.493987,-3602.3,6286)">
                    <circle cx="8189.93" cy="7859.28" r="661.397" style="fill:rgb(252,205,4);fill-opacity:0.73;"/>
                </g>
                <g transform="matrix(0.370761,0,0,0.370761,6412.31,4172.7)">
                    <circle cx="8189.93" cy="7859.28" r="661.397" style="fill:rgb(255,180,143);fill-opacity:0.73;"/>
                </g>
                <g transform="matrix(0.370761,0,0,0.370761,4828.9,3916.91)">
                    <circle cx="8189.93" cy="7859.28" r="661.397" style="fill:rgb(245,230,204);fill-opacity:0.73;"/>
                </g>
                <g transform="matrix(0.370761,0,0,0.370761,3076.87,3770.85)">
                    <circle cx="8189.93" cy="7859.28" r="661.397" style="fill:rgb(23,233,224);fill-opacity:0.73;"/>
                </g>
                <g transform="matrix(0.370761,0,0,0.370761,5513.65,4757.17)">
                    <circle cx="8189.93" cy="7859.28" r="661.397" style="fill:rgb(166,74,201);fill-opacity:0.73;"/>
                </g>
                <g transform="matrix(0.370761,0,0,0.370761,5939.87,7952.23)">
                    <circle cx="8189.93" cy="7859.28" r="661.397" style="fill:rgb(252,205,4);fill-opacity:0.73;"/>
                </g>
                <g transform="matrix(0.493987,0,0,0.493987,-2507.13,7444.1)">
                    <circle cx="8189.93" cy="7859.28" r="661.397" style="fill:rgb(23,233,224);fill-opacity:0.73;"/>
                </g>
                <g transform="matrix(0.493987,0,0,0.493987,-3099.44,9958.94)">
                    <circle cx="8189.93" cy="7859.28" r="661.397" style="fill:rgb(166,74,201);fill-opacity:0.73;"/>
                </g>
                <g transform="matrix(0.370761,0,0,0.370761,-407.317,10118.6)">
                    <circle cx="8189.93" cy="7859.28" r="661.397" style="fill:rgb(252,205,4);fill-opacity:0.73;"/>
                </g>
                <g transform="matrix(0.370761,0,0,0.370761,-2570.98,8531.51)">
                    <circle cx="8189.93" cy="7859.28" r="661.397" style="fill:rgb(255,180,143);fill-opacity:0.73;"/>
                </g>
                <g transform="matrix(0.370761,0,0,0.370761,3564.21,7001.69)">
                    <circle cx="8189.93" cy="7859.28" r="661.397" style="fill:rgb(245,230,204);fill-opacity:0.73;"/>
                </g>
                <g transform="matrix(0.370761,0,0,0.370761,-157.434,11259.3)">
                    <circle cx="8189.93" cy="7859.28" r="661.397" style="fill:rgb(23,233,224);fill-opacity:0.73;"/>
                </g>
                <g transform="matrix(0.493987,0,0,0.493987,-2930.61,2945.07)">
                    <circle cx="8189.93" cy="7859.28" r="661.397" style="fill:rgb(255,180,143);fill-opacity:0.73;"/>
                </g>
                <g transform="matrix(0.493987,0,0,0.493987,-3312.57,4951)">
                    <circle cx="8189.93" cy="7859.28" r="661.397" style="fill:rgb(166,74,201);fill-opacity:0.73;"/>
                </g>
                <g transform="matrix(0.370761,0,0,0.370761,-2791.28,10149.9)">
                    <circle cx="8189.93" cy="7859.28" r="661.397" style="fill:rgb(23,233,224);fill-opacity:0.73;"/>
                </g>
                <g transform="matrix(0.370761,0,0,0.370761,3076.87,5219.78)">
                    <circle cx="8189.93" cy="7859.28" r="661.397" style="fill:rgb(166,74,201);fill-opacity:0.73;"/>
                </g>
                <g transform="matrix(0.370761,0,0,0.370761,333.006,9006.25)">
                    <circle cx="8189.93" cy="7859.28" r="661.397" style="fill:rgb(252,205,4);fill-opacity:0.73;"/>
                </g>
            </g>
        </g>
    </g>
</svg>
