<?xml version="1.0" encoding="UTF-8" standalone="no"?>
<!DOCTYPE svg PUBLIC "-//W3C//DTD SVG 1.1//EN" "http://www.w3.org/Graphics/SVG/1.1/DTD/svg11.dtd">
<svg width="100%" height="100%" viewBox="0 0 12456 13854" version="1.1" xmlns="http://www.w3.org/2000/svg" xmlns:xlink="http://www.w3.org/1999/xlink" xml:space="preserve" xmlns:serif="http://www.serif.com/" style="fill-rule:evenodd;clip-rule:evenodd;stroke-linejoin:round;stroke-miterlimit:2;">
    <g transform="matrix(1,0,0,1,1100.18,-22155.1)">
        <g id="Triangles">
            <g id="Triangles1" serif:id="Triangles" transform="matrix(1.36684,-0.484017,0.484017,1.36684,-13489.7,-9296.35)">
                <g transform="matrix(0.678435,-0.73466,0.73466,0.678435,-19898.1,9743.86)">
                    <path d="M944.882,27401.6L1417.32,28346.5L472.441,28346.5L944.882,27401.6Z" style="fill:rgb(23,233,224);fill-opacity:0.4;"/>
                </g>
                <g transform="matrix(-0.997808,0.0661725,-0.0661725,-0.997808,3285.51,55942.5)">
                    <path d="M944.882,27401.6L1417.32,28346.5L472.441,28346.5L944.882,27401.6Z" style="fill:rgb(23,233,224);fill-opacity:0.4;"/>
                </g>
                <g transform="matrix(-0.545678,-1.39722,1.39722,-0.545678,-37249.5,44168.3)">
                    <path d="M944.882,27401.6L1417.32,28346.5L472.441,28346.5L944.882,27401.6Z" style="fill:rgb(23,233,224);fill-opacity:0.4;"/>
                </g>
                <g transform="matrix(1.20297,-0.896031,0.896031,1.20297,-24776.9,-4677.84)">
                    <path d="M944.882,27401.6L1417.32,28346.5L472.441,28346.5L944.882,27401.6Z" style="fill:rgb(23,233,224);fill-opacity:0.4;"/>
                </g>
                <g transform="matrix(1.84807,-0.764623,0.764623,1.84807,-21642,-23389)">
                    <path d="M944.882,27401.6L1417.32,28346.5L472.441,28346.5L944.882,27401.6Z" style="fill:rgb(23,233,224);fill-opacity:0.4;"/>
                </g>
                <g transform="matrix(2.25776,1.07355,-1.07355,2.25776,29123.4,-36424.6)">
                    <path d="M944.882,27401.6L1417.32,28346.5L472.441,28346.5L944.882,27401.6Z" style="fill:rgb(23,233,224);fill-opacity:0.4;"/>
                </g>
            </g>
            <g id="Triangles2" serif:id="Triangles" transform="matrix(1.36684,-0.484017,0.484017,1.36684,-5779.67,-4036.11)">
                <g transform="matrix(0.678435,-0.73466,0.73466,0.678435,-19898.1,9743.86)">
                    <path d="M944.882,27401.6L1417.32,28346.5L472.441,28346.5L944.882,27401.6Z" style="fill:rgb(23,233,224);fill-opacity:0.4;"/>
                </g>
                <g transform="matrix(-0.997808,0.0661725,-0.0661725,-0.997808,3285.51,55942.5)">
                    <path d="M944.882,27401.6L1417.32,28346.5L472.441,28346.5L944.882,27401.6Z" style="fill:rgb(23,233,224);fill-opacity:0.4;"/>
                </g>
                <g transform="matrix(-0.545678,-1.39722,1.39722,-0.545678,-37249.5,44168.3)">
                    <path d="M944.882,27401.6L1417.32,28346.5L472.441,28346.5L944.882,27401.6Z" style="fill:rgb(23,233,224);fill-opacity:0.4;"/>
                </g>
                <g transform="matrix(1.20297,-0.896031,0.896031,1.20297,-24776.9,-4677.84)">
                    <path d="M944.882,27401.6L1417.32,28346.5L472.441,28346.5L944.882,27401.6Z" style="fill:rgb(23,233,224);fill-opacity:0.4;"/>
                </g>
                <g transform="matrix(1.84807,-0.764623,0.764623,1.84807,-21642,-23389)">
                    <path d="M944.882,27401.6L1417.32,28346.5L472.441,28346.5L944.882,27401.6Z" style="fill:rgb(23,233,224);fill-opacity:0.4;"/>
                </g>
                <g transform="matrix(2.25776,1.07355,-1.07355,2.25776,29123.4,-36424.6)">
                    <path d="M944.882,27401.6L1417.32,28346.5L472.441,28346.5L944.882,27401.6Z" style="fill:rgb(23,233,224);fill-opacity:0.4;"/>
                </g>
            </g>
            <g id="Triangles3" serif:id="Triangles" transform="matrix(1.09624,0.949092,-0.949092,1.09624,32663.8,-2209.89)">
                <g transform="matrix(0.678435,-0.73466,0.73466,0.678435,-19898.1,9743.86)">
                    <path d="M944.882,27401.6L1417.32,28346.5L472.441,28346.5L944.882,27401.6Z" style="fill:rgb(255,180,143);fill-opacity:0.4;"/>
                </g>
                <g transform="matrix(-0.997808,0.0661725,-0.0661725,-0.997808,3285.51,55942.5)">
                    <path d="M944.882,27401.6L1417.32,28346.5L472.441,28346.5L944.882,27401.6Z" style="fill:rgb(255,180,143);fill-opacity:0.4;"/>
                </g>
                <g transform="matrix(-0.545678,-1.39722,1.39722,-0.545678,-37249.5,44168.3)">
                    <path d="M944.882,27401.6L1417.32,28346.5L472.441,28346.5L944.882,27401.6Z" style="fill:rgb(255,180,143);fill-opacity:0.4;"/>
                </g>
                <g transform="matrix(1.20297,-0.896031,0.896031,1.20297,-24776.9,-4677.84)">
                    <path d="M944.882,27401.6L1417.32,28346.5L472.441,28346.5L944.882,27401.6Z" style="fill:rgb(255,180,143);fill-opacity:0.4;"/>
                </g>
                <g transform="matrix(1.84807,-0.764623,0.764623,1.84807,-21642,-23389)">
                    <path d="M944.882,27401.6L1417.32,28346.5L472.441,28346.5L944.882,27401.6Z" style="fill:rgb(255,180,143);fill-opacity:0.4;"/>
                </g>
            </g>
            <g id="Triangles4" serif:id="Triangles" transform="matrix(0.023529,1.44982,-1.44982,0.023529,40914.5,31507.8)">
                <g transform="matrix(0.678435,-0.73466,0.73466,0.678435,-19898.1,9743.86)">
                    <path d="M944.882,27401.6L1417.32,28346.5L472.441,28346.5L944.882,27401.6Z" style="fill:rgb(255,180,143);fill-opacity:0.4;"/>
                </g>
                <g transform="matrix(-0.997808,0.0661725,-0.0661725,-0.997808,3285.51,55942.5)">
                    <path d="M944.882,27401.6L1417.32,28346.5L472.441,28346.5L944.882,27401.6Z" style="fill:rgb(255,180,143);fill-opacity:0.4;"/>
                </g>
                <g transform="matrix(-0.545678,-1.39722,1.39722,-0.545678,-37249.5,44168.3)">
                    <path d="M944.882,27401.6L1417.32,28346.5L472.441,28346.5L944.882,27401.6Z" style="fill:rgb(255,180,143);fill-opacity:0.4;"/>
                </g>
                <g transform="matrix(1.20297,-0.896031,0.896031,1.20297,-24776.9,-4677.84)">
                    <path d="M944.882,27401.6L1417.32,28346.5L472.441,28346.5L944.882,27401.6Z" style="fill:rgb(255,180,143);fill-opacity:0.4;"/>
                </g>
                <g transform="matrix(1.84807,-0.764623,0.764623,1.84807,-21642,-23389)">
                    <path d="M944.882,27401.6L1417.32,28346.5L472.441,28346.5L944.882,27401.6Z" style="fill:rgb(255,180,143);fill-opacity:0.4;"/>
                </g>
            </g>
            <g id="Triangles5" serif:id="Triangles" transform="matrix(1.09624,0.949092,-0.949092,1.09624,28786.6,-293.793)">
                <g transform="matrix(0.678435,-0.73466,0.73466,0.678435,-19898.1,9743.86)">
                    <path d="M944.882,27401.6L1417.32,28346.5L472.441,28346.5L944.882,27401.6Z" style="fill:rgb(23,233,224);fill-opacity:0.4;"/>
                </g>
                <g transform="matrix(0.0692276,0.997601,-0.997601,0.0692276,28461.3,24798.5)">
                    <path d="M944.882,27401.6L1417.32,28346.5L472.441,28346.5L944.882,27401.6Z" style="fill:rgb(23,233,224);fill-opacity:0.4;"/>
                </g>
                <g transform="matrix(-0.679894,-1.33707,1.33707,-0.679894,-35216.3,47662)">
                    <path d="M944.882,27401.6L1417.32,28346.5L472.441,28346.5L944.882,27401.6Z" style="fill:rgb(23,233,224);fill-opacity:0.4;"/>
                </g>
                <g transform="matrix(1.498,0.077387,-0.077387,1.498,2077.42,-13821.5)">
                    <path d="M944.882,27401.6L1417.32,28346.5L472.441,28346.5L944.882,27401.6Z" style="fill:rgb(23,233,224);fill-opacity:0.4;"/>
                </g>
            </g>
            <g id="Triangles6" serif:id="Triangles" transform="matrix(0.634497,-1.30381,1.30381,0.634497,-28039.4,7901.36)">
                <g transform="matrix(0.678435,-0.73466,0.73466,0.678435,-19898.1,9743.86)">
                    <path d="M944.882,27401.6L1417.32,28346.5L472.441,28346.5L944.882,27401.6Z" style="fill:rgb(255,180,143);fill-opacity:0.4;"/>
                </g>
                <g transform="matrix(-0.997808,0.0661725,-0.0661725,-0.997808,3285.51,55942.5)">
                    <path d="M944.882,27401.6L1417.32,28346.5L472.441,28346.5L944.882,27401.6Z" style="fill:rgb(255,180,143);fill-opacity:0.4;"/>
                </g>
                <g transform="matrix(-0.545678,-1.39722,1.39722,-0.545678,-37249.5,44168.3)">
                    <path d="M944.882,27401.6L1417.32,28346.5L472.441,28346.5L944.882,27401.6Z" style="fill:rgb(255,180,143);fill-opacity:0.4;"/>
                </g>
                <g transform="matrix(1.20297,-0.896031,0.896031,1.20297,-24776.9,-4677.84)">
                    <path d="M944.882,27401.6L1417.32,28346.5L472.441,28346.5L944.882,27401.6Z" style="fill:rgb(255,180,143);fill-opacity:0.4;"/>
                </g>
                <g transform="matrix(1.84807,-0.764623,0.764623,1.84807,-21642,-23389)">
                    <path d="M944.882,27401.6L1417.32,28346.5L472.441,28346.5L944.882,27401.6Z" style="fill:rgb(255,180,143);fill-opacity:0.4;"/>
                </g>
                <g transform="matrix(2.25776,1.07355,-1.07355,2.25776,29123.4,-36424.6)">
                    <path d="M944.882,27401.6L1417.32,28346.5L472.441,28346.5L944.882,27401.6Z" style="fill:rgb(255,180,143);fill-opacity:0.4;"/>
                </g>
            </g>
            <g id="Triangles7" serif:id="Triangles" transform="matrix(-0.000839392,-1.44182,1.44182,-0.000839392,-39007.4,26035.4)">
                <g transform="matrix(0.678435,-0.73466,0.73466,0.678435,-19898.1,9743.86)">
                    <path d="M944.882,27401.6L1417.32,28346.5L472.441,28346.5L944.882,27401.6Z" style="fill:rgb(255,180,143);fill-opacity:0.4;"/>
                </g>
                <g transform="matrix(-0.997808,0.0661725,-0.0661725,-0.997808,3285.51,55942.5)">
                    <path d="M944.882,27401.6L1417.32,28346.5L472.441,28346.5L944.882,27401.6Z" style="fill:rgb(255,180,143);fill-opacity:0.4;"/>
                </g>
                <g transform="matrix(-0.545678,-1.39722,1.39722,-0.545678,-37249.5,44168.3)">
                    <path d="M944.882,27401.6L1417.32,28346.5L472.441,28346.5L944.882,27401.6Z" style="fill:rgb(255,180,143);fill-opacity:0.4;"/>
                </g>
                <g transform="matrix(1.20297,-0.896031,0.896031,1.20297,-24776.9,-4677.84)">
                    <path d="M944.882,27401.6L1417.32,28346.5L472.441,28346.5L944.882,27401.6Z" style="fill:rgb(255,180,143);fill-opacity:0.4;"/>
                </g>
                <g transform="matrix(1.84807,-0.764623,0.764623,1.84807,-21642,-23389)">
                    <path d="M944.882,27401.6L1417.32,28346.5L472.441,28346.5L944.882,27401.6Z" style="fill:rgb(255,180,143);fill-opacity:0.4;"/>
                </g>
                <g transform="matrix(2.25776,1.07355,-1.07355,2.25776,29123.4,-36424.6)">
                    <path d="M944.882,27401.6L1417.32,28346.5L472.441,28346.5L944.882,27401.6Z" style="fill:rgb(255,180,143);fill-opacity:0.4;"/>
                </g>
            </g>
        </g>
    </g>
</svg>
